<?xml version="1.0" encoding="UTF-8"?>
<svg width="162px" height="32px" viewBox="0 0 162 32" version="1.1" xmlns="http://www.w3.org/2000/svg" xmlns:xlink="http://www.w3.org/1999/xlink">
    <title>Logo/English-Dark</title>
    <defs>
        <polygon id="path-1" points="0 0.00392365177 20.4191789 0.00392365177 20.4191789 31.3191209 0 31.3191209"></polygon>
    </defs>
    <g id="Logo/English-Dark" stroke="none" stroke-width="1" fill="none" fill-rule="evenodd">
        <g id="Group-6" transform="translate(54.000000, 0.000000)">
            <g id="Group-3" transform="translate(0.000000, 0.610790)">
                <mask id="mask-2" fill="white">
                    <use xlink:href="#path-1"></use>
                </mask>
                <g id="Clip-2"></g>
                <path d="M20.0182045,9.31381042 L20.0182045,9.31381042 C17.8902163,9.31381042 16.1651745,11.0298476 16.1651745,13.1466577 L16.1651745,25.8906086 C16.1651745,26.5515337 15.6265743,27.0873924 14.9621811,27.0873924 L5.45705415,27.0873924 C4.79259046,27.0873924 4.25406075,26.5515337 4.25406075,25.8906086 L4.25406075,1.20067948 C4.25406075,0.539684288 3.71539017,0.00389562568 3.05099692,0.00389562568 L1.20304974,0.00389562568 C0.538656493,0.00389562568 -1.40865737e-05,0.539684288 -1.40865737e-05,1.20067948 L-1.40865737e-05,29.2032216 C-1.40865737e-05,30.3718393 0.952308731,31.3191209 2.12698811,31.3191209 L18.2921767,31.3191209 C19.4669265,31.3191209 20.4191789,30.3718393 20.4191789,29.2032216 L20.4191789,9.71269167 C20.4191789,9.49247671 20.2397159,9.31381042 20.0182045,9.31381042" id="Fill-1" fill="#FFFFFF" mask="url(#mask-2)"></path>
            </g>
            <path d="M51.915613,10.1427048 L38.0209495,10.1427048 L36.1918861,10.1427048 L21.5033295,10.1427048 C21.2840817,10.1427048 21.106383,10.3196004 21.106383,10.537633 L21.106383,13.9376372 C21.106383,14.1558085 21.2840817,14.3325655 21.5033295,14.3325655 L35.0011162,14.3325655 L35.0011162,30.7450153 C35.0011162,31.3994599 35.5342822,31.9299388 36.1918861,31.9299388 L38.0209495,31.9299388 C38.6785535,31.9299388 39.2116498,31.3994599 39.2116498,30.7450153 L39.2116498,14.3325655 L51.915613,14.3325655 C52.5732867,14.3325655 53.106383,13.8020866 53.106383,13.147642 L53.106383,11.3276283 C53.106383,10.6731837 52.5732867,10.1427048 51.915613,10.1427048" id="Fill-4" fill="#FFFFFF"></path>
        </g>
    </g>
</svg>