<?xml version="1.0" encoding="UTF-8"?>
<svg width="48px" height="48px" viewBox="0 0 48 48" version="1.1" xmlns="http://www.w3.org/2000/svg" xmlns:xlink="http://www.w3.org/1999/xlink">
    <!-- Generator: Sketch 62 (91390) - https://sketch.com -->
    <title>file-pdf</title>
    <desc>Created with Sketch.</desc>
    <g id="Page-1" stroke="none" stroke-width="1" fill="none" fill-rule="evenodd">
        <g id="Add-New-Research-Step-#3" transform="translate(-768.000000, -738.000000)" fill="#004F30" fill-rule="nonzero">
            <g id="Files" transform="translate(443.000000, 738.000000)">
                <g id="Main-Files">
                    <g id="Text-Field-/-Outlined-/-Active-Filled-/-Enabled">
                        <path d="M363.625,48 C364.5625,48 365.351562,47.671875 365.992188,47.015625 C366.632812,46.359375 366.953125,45.5625 366.953125,44.625 L366.953125,16.5 C366.953125,15.5625 366.640625,14.78125 366.015625,14.15625 L352.984375,0.984375 C352.765625,0.796875 352.53125,0.625 352.28125,0.46875 C352.1875,0.40625 352.125,0.375 352.09375,0.375 C352.0625,0.34375 352.015625,0.3125 351.953125,0.28125 C351.515625,0.09375 351.0625,0 350.59375,0 L334.421875,0 C333.484375,0 332.679688,0.328125 332.007812,0.984375 C331.335938,1.640625 331,2.4375 331,3.375 L331,44.625 C331,45.5625 331.335938,46.359375 332.007812,47.015625 C332.679688,47.671875 333.484375,48 334.421875,48 L363.625,48 Z M363.578125,44.625 L334.375,44.625 L334.375,3.375 L348.953125,3.375 L348.953125,14.625 C348.953125,15.5625 349.289062,16.359375 349.960938,17.015625 C350.632812,17.671875 351.4375,18 352.375,18 L363.578125,18 L363.578125,44.625 Z M361.75,14.625 L352.328125,14.625 L352.328125,5.15625 L361.75,14.625 Z M339.625,36 L339.625,33 L340.65625,33 C341.6875,33 342.539062,32.7421875 343.210938,32.2265625 C343.882812,31.7109375 344.21875,30.9375 344.21875,29.90625 C344.21875,27.96875 343.015625,27 340.609375,27 L337.46875,27 L337.46875,36 L339.625,36 Z M348.4375,36 C349.8125,36 350.890625,35.6171875 351.671875,34.8515625 C352.453125,34.0859375 352.84375,32.953125 352.84375,31.453125 C352.84375,29.953125 352.445312,28.8359375 351.648438,28.1015625 C350.851562,27.3671875 349.75,27 348.34375,27 L345.71875,27 L345.71875,36 L348.4375,36 Z M356.6875,36 L356.6875,32.578125 L359.734375,32.578125 L359.734375,30.796875 L356.6875,30.796875 L356.6875,28.78125 L360.25,28.78125 L360.25,27 L354.53125,27 L354.53125,36 L356.6875,36 Z M340.5625,31.3125 L339.625,31.3125 L339.625,28.6875 L340.46875,28.6875 C341.5625,28.6875 342.109375,29.09375 342.109375,29.90625 C342.109375,30.84375 341.59375,31.3125 340.5625,31.3125 Z M348.203125,34.265625 L347.921875,34.265625 L347.921875,28.734375 L348.203125,28.734375 C348.984375,28.734375 349.585938,28.9375 350.007812,29.34375 C350.429688,29.75 350.640625,30.453125 350.640625,31.453125 C350.640625,33.328125 349.828125,34.265625 348.203125,34.265625 Z" id="file-pdf"></path>
                    </g>
                </g>
            </g>
        </g>
    </g>
</svg>